<?xml version="1.0" encoding="iso-8859-1"?>
<!-- Uploaded to: SVG Repo, www.svgrepo.com, Generator: SVG Repo Mixer Tools -->
<svg height="800px" width="800px" version="1.1" id="Layer_1" xmlns="http://www.w3.org/2000/svg" xmlns:xlink="http://www.w3.org/1999/xlink" 
	 viewBox="0 0 512 512" xml:space="preserve">
<path style="fill:#A77C77;" d="M8.17,217.872v32.681c0,17.974,14.706,54.468,32.681,54.468l430.298,133.447l32.681-32.681V217.872
	H8.17z"/>
<path style="fill:#BA9894;" d="M40.851,283.234c-17.974,0-32.681-14.706-32.681-32.681v155.234l98.043,98.043h299.574l65.362-65.362
	V283.234H40.851z"/>
<path style="fill:#81433D;" d="M471.149,95.319h-32.681v155.234h32.681c17.974,0,32.681-14.706,32.681-32.681V128
	C503.83,110.026,489.123,95.319,471.149,95.319z"/>
<path style="fill:#945F5A;" d="M471.149,217.872V128c0-17.974-14.706-32.681-32.681-32.681H40.851
	C22.877,95.319,8.17,110.026,8.17,128v89.872c0,17.974,14.706,32.681,32.681,32.681h397.617
	C456.443,250.553,471.149,235.847,471.149,217.872z"/>
<path style="fill:#BFBFBF;" d="M315.915,8.17h-32.681l32.681,32.681h32.681C348.596,22.877,333.889,8.17,315.915,8.17z"/>
<g>
	<path style="fill:#D5D5D5;" d="M283.234,8.17h-87.149c-17.974,0-32.681,14.706-32.681,32.681h152.511
		C315.915,22.877,301.208,8.17,283.234,8.17z"/>
	<path style="fill:#D5D5D5;" d="M471.149,411.429l-32.681,92.401h32.681c17.974,0,32.681-14.706,32.681-32.681v-65.362
		C492.384,405.787,481.383,407.782,471.149,411.429z"/>
</g>
<g>
	<path style="fill:#EAEAEA;" d="M471.149,471.149v-59.72c-37.981,13.536-65.362,49.923-65.362,92.401h32.681
		C456.443,503.83,471.149,489.123,471.149,471.149z"/>
	<path style="fill:#EAEAEA;" d="M8.17,405.787v65.362c0,17.974,14.706,32.681,32.681,32.681h65.362
		C106.213,449.906,62.094,405.787,8.17,405.787z"/>
	<polygon style="fill:#EAEAEA;" points="272.34,348.596 272.34,281.175 239.66,281.175 239.66,348.596 206.979,348.596 
		206.979,381.277 239.66,381.277 239.66,413.957 272.34,413.957 272.34,381.277 305.021,381.277 305.021,348.596 	"/>
	<path style="fill:#EAEAEA;" d="M256,185.191l-26.145,65.362L256,315.915c36.098,0,65.362-29.264,65.362-65.362
		S292.098,185.191,256,185.191z"/>
</g>
<path style="fill:#FFFFFF;" d="M190.638,250.553c0,36.098,29.264,65.362,65.362,65.362V185.191
	C219.902,185.191,190.638,214.455,190.638,250.553z"/>
<path d="M471.149,87.149h-99.448c-2.466-6.952-7.983-12.469-14.935-14.935V40.851C356.766,18.325,338.441,0,315.915,0h-119.83
	c-22.526,0-40.851,18.325-40.851,40.851v31.363c-6.952,2.465-12.469,7.983-14.935,14.935H40.851C18.325,87.149,0,105.474,0,128
	v343.149C0,493.675,18.325,512,40.851,512h430.298C493.675,512,512,493.675,512,471.149V128
	C512,105.474,493.675,87.149,471.149,87.149z M171.574,87.149V49.021h168.851v38.128H171.574z M196.085,16.34h119.83
	c10.651,0,19.733,6.831,23.105,16.34H172.98C176.352,23.172,185.434,16.34,196.085,16.34z M16.34,128
	c0-13.516,10.996-24.511,24.511-24.511h430.298c13.515,0,24.511,10.995,24.511,24.511v89.872c0,13.516-10.996,24.511-24.511,24.511
	H329.067c-4.079-36.714-35.284-65.362-73.067-65.362c-40.546,0-73.532,32.986-73.532,73.532c0,31.416,19.858,59.077,49.021,69.349
	v20.524h-24.511c-4.513,0-8.17,3.658-8.17,8.17v32.681c0,4.512,3.657,8.17,8.17,8.17h24.511v24.511c0,4.512,3.657,8.17,8.17,8.17
	h32.681c4.513,0,8.17-3.658,8.17-8.17v-24.511h24.511c4.513,0,8.17-3.658,8.17-8.17v-32.681c0-4.512-3.657-8.17-8.17-8.17h-24.511
	v-20.524c26.604-9.371,45.457-33.215,48.562-61.179h142.077c9.19,0,17.678-3.051,24.511-8.192v147.397
	c-52.066,3.979-93.752,45.665-97.731,97.731H114.071c-3.979-52.066-45.665-93.752-97.731-97.731V250.531
	c6.832,5.141,15.321,8.192,24.511,8.192h117.106c4.513,0,8.17-3.658,8.17-8.17c0-4.512-3.657-8.17-8.17-8.17H40.851
	c-13.515,0-24.511-10.995-24.511-24.511V128z M272.34,356.766h24.511v16.34H272.34c-4.513,0-8.17,3.658-8.17,8.17v24.511h-16.34
	v-24.511c0-4.512-3.657-8.17-8.17-8.17h-24.511v-16.34h24.511c4.513,0,8.17-3.658,8.17-8.17v-34.741
	c0-3.728-2.523-6.983-6.134-7.912c-25.251-6.499-42.887-29.277-42.887-55.39c0-31.536,25.657-57.191,57.191-57.191
	s57.191,25.656,57.191,57.191c0,26.113-17.636,48.891-42.887,55.39c-3.61,0.929-6.134,4.184-6.134,7.912v34.741
	C264.17,353.108,267.827,356.766,272.34,356.766z M16.34,471.149v-56.804c43.046,3.9,77.414,38.268,81.314,81.314H40.851
	C27.336,495.66,16.34,484.665,16.34,471.149z M471.149,495.66h-56.804c3.9-43.046,38.268-77.414,81.314-81.314v56.804
	C495.66,484.665,484.664,495.66,471.149,495.66z"/>
<circle cx="49.021" cy="136.17" r="8.17"/>
<circle cx="81.702" cy="168.851" r="8.17"/>
<circle cx="430.298" cy="381.277" r="8.17"/>
<path d="M264.17,234.213c0-4.512-3.657-8.17-8.17-8.17s-8.17,3.658-8.17,8.17v32.681c0,4.512,3.657,8.17,8.17,8.17
	s8.17-3.658,8.17-8.17V234.213z"/>
</svg>