<?xml version="1.0" standalone="no"?>
<!DOCTYPE svg PUBLIC "-//W3C//DTD SVG 20010904//EN"
 "http://www.w3.org/TR/2001/REC-SVG-20010904/DTD/svg10.dtd">
<svg version="1.0" xmlns="http://www.w3.org/2000/svg"
 width="512.000000pt" height="512.000000pt" viewBox="0 0 512.000000 512.000000"
 preserveAspectRatio="xMidYMid meet">
<metadata>
Created by potrace 1.16, written by Peter Selinger 2001-2019
</metadata>
<g transform="translate(0.000000,512.000000) scale(0.100000,-0.100000)"
fill="#000000" stroke="none">
<path d="M3005 4294 c-11 -2 -166 -15 -345 -29 -179 -14 -390 -30 -470 -36
l-144 -12 -226 -104 c-124 -57 -331 -156 -460 -221 -189 -94 -235 -121 -235
-137 0 -19 7 -20 178 -20 176 0 177 0 177 -22 0 -12 -4 -25 -10 -28 -20 -12
-10 -26 10 -15 22 12 40 6 40 -13 0 -8 -3 -8 -12 1 -15 15 -48 -3 -48 -26 0
-9 -8 -68 -17 -129 l-17 -113 -110 0 c-130 0 -173 -16 -236 -87 -55 -63 -80
-136 -91 -268 -10 -132 -11 -1297 0 -1545 7 -158 10 -181 33 -231 68 -148 183
-209 396 -209 41 0 99 -7 129 -16 59 -17 224 -13 1253 31 184 8 481 19 660 25
521 17 545 22 634 121 80 90 77 46 74 976 l-3 818 -33 67 c-36 73 -90 122
-152 137 -19 5 -137 12 -262 16 -126 4 -228 11 -228 16 0 15 -43 49 -62 49
-10 0 -18 6 -18 14 0 49 -42 389 -50 412 -15 40 -57 82 -94 93 -17 6 -67 15
-111 21 -44 5 -96 13 -115 15 -79 12 16 -17 118 -35 117 -21 163 -48 181 -102
5 -18 17 -105 26 -193 8 -88 18 -175 21 -192 l6 -33 -50 0 -51 0 -5 43 c-2 23
-9 93 -14 156 -11 127 -22 151 -88 188 -57 33 -66 28 -12 -6 26 -16 52 -39 58
-51 6 -11 15 -76 20 -143 6 -67 12 -139 14 -159 3 -28 0 -38 -10 -38 -8 0 -19
-9 -26 -20 -11 -18 -24 -20 -105 -20 -86 0 -93 2 -104 23 -21 40 -52 67 -84
73 -29 5 -33 11 -39 45 -5 30 -12 42 -32 50 -34 12 -269 28 -464 31 l-155 2
145 6 c158 6 219 21 338 83 73 38 169 106 177 126 3 7 -6 43 -21 80 -14 36
-42 106 -61 154 -19 49 -32 94 -30 101 5 14 240 208 290 240 41 28 35 46 -15
45 -24 -1 -52 -3 -63 -5z m0 -53 c-3 -6 -59 -53 -125 -105 l-119 -95 -319
-119 -320 -120 -155 -4 c-114 -3 -158 -1 -161 8 -6 17 49 24 184 24 l116 0
169 63 c94 35 241 90 327 121 131 48 173 69 246 121 48 35 95 71 102 81 14 16
13 17 -10 11 -14 -4 -207 -19 -430 -32 -359 -23 -461 -34 -535 -59 -11 -3 7 7
40 23 59 29 66 30 455 59 432 32 544 37 535 23z m-835 -216 c21 -25 -3 -39
-72 -41 -64 -3 -79 -8 -287 -105 -46 -22 -86 -37 -89 -34 -5 5 12 13 203 98
55 25 100 50 100 57 0 37 118 57 145 25z m-615 -91 c-155 -75 -314 -139 -220
-88 62 34 286 133 300 133 6 -1 -30 -20 -80 -45z m499 16 c-6 -6 -67 -36 -135
-66 -68 -31 -130 -60 -137 -66 -7 -6 -15 -8 -19 -4 -8 8 -18 3 147 79 152 70
160 73 144 57z m645 -27 c23 -86 40 -183 35 -198 -9 -22 9 -18 34 8 l22 23
-25 94 c-14 51 -24 98 -22 104 3 9 26 -58 64 -187 3 -13 -9 -32 -40 -62 -126
-120 -366 -193 -608 -183 -54 2 -101 7 -105 11 -11 11 -8 169 4 198 9 21 19
27 59 32 26 4 90 22 142 42 51 19 98 35 103 35 6 0 -11 -23 -37 -52 -25 -28
-53 -66 -62 -82 -12 -25 -1 -17 53 35 110 105 153 134 259 177 55 22 103 41
107 41 4 1 12 -16 17 -36z m-979 -100 c-1 -25 -22 -32 -118 -35 -75 -2 -102 0
-102 9 0 14 40 22 135 26 39 2 73 4 78 5 4 1 7 -1 7 -5z m49 -101 c7 -13 10
-26 7 -29 -10 -10 -48 86 -39 100 4 8 9 1 13 -18 4 -17 12 -41 19 -53z m20 54
c7 -8 14 -31 16 -53 l5 -38 -10 40 c-6 22 -18 46 -27 53 -9 6 -12 12 -6 12 6
0 16 -6 22 -14z m-282 -68 c-3 -7 -5 -2 -5 12 0 14 2 19 5 13 2 -7 2 -19 0
-25z m293 -73 c0 -28 -4 -35 -20 -35 -16 0 -20 7 -20 35 0 28 4 35 20 35 16 0
20 -7 20 -35z m44 19 c10 -27 7 -54 -8 -54 -8 0 -15 14 -18 35 -4 36 14 50 26
19z m-340 -56 c6 -31 4 -38 -9 -38 -16 0 -20 34 -9 65 8 20 10 18 18 -27z
m1209 -19 c-14 -14 -173 -69 -198 -68 -11 0 7 8 40 18 33 10 83 27 110 39 61
24 62 25 48 11z m-1067 -44 l82 -26 -6 -84 -5 -85 37 -35 c63 -59 141 -42 159
34 5 21 -5 99 -18 142 -5 13 2 14 47 8 29 -4 87 -9 128 -10 l75 -2 -67 -6
c-90 -8 -108 -25 -118 -119 -4 -38 -11 -75 -14 -81 -5 -7 -47 -11 -116 -11
l-110 0 -20 39 c-20 41 -61 76 -94 82 -14 3 -23 21 -36 74 -9 39 -20 80 -24
92 -5 17 -4 22 6 19 7 -3 50 -16 94 -31z m-156 -75 c0 -40 -4 -70 -10 -70 -6
0 -10 30 -10 70 0 40 4 70 10 70 6 0 10 -30 10 -70z m46 -22 c3 -41 2 -58 -4
-48 -5 8 -12 44 -15 80 -5 45 -3 60 3 48 6 -9 13 -45 16 -80z m310 67 c13 -4
34 -81 34 -127 0 -45 -24 -78 -58 -78 -33 0 -45 8 -61 37 -12 24 -15 102 -5
152 6 30 8 31 43 25 20 -3 41 -7 47 -9z m641 -1 c-3 -3 -12 -4 -19 -1 -8 3 -5
6 6 6 11 1 17 -2 13 -5z m-50 -10 c-3 -3 -12 -4 -19 -1 -8 3 -5 6 6 6 11 1 17
-2 13 -5z m-219 -21 c-10 -2 -26 -2 -35 0 -10 3 -2 5 17 5 19 0 27 -2 18 -5z
m-54 -56 c27 -20 9 -71 -25 -75 -23 -3 -24 -1 -21 43 4 47 15 55 46 32z m-76
-39 c-3 -42 -4 -43 -38 -43 -28 0 -36 4 -38 22 -5 37 15 63 49 63 29 0 30 -1
27 -42z m750 5 c18 -4 22 -12 22 -40 l0 -36 -52 7 c-182 22 -253 27 -420 29
-183 2 -188 3 -188 23 0 11 3 24 8 29 8 8 592 -2 630 -12z m-1296 -45 c14 -1
39 -14 54 -28 27 -25 25 -11 -4 23 -18 21 -10 22 26 3 15 -8 34 -27 44 -43
l16 -28 -93 -2 c-101 -2 -139 -14 -174 -59 -22 -28 -29 -60 -10 -49 7 5 10
-83 8 -296 l-3 -304 29 -60 c27 -56 29 -70 35 -212 3 -105 9 -156 18 -165 11
-11 12 -6 8 27 -3 22 -8 94 -11 159 l-6 119 23 -16 c13 -9 59 -38 103 -63 44
-26 81 -48 83 -50 2 -1 5 -51 7 -110 3 -60 8 -145 11 -188 l6 -79 -42 7 c-54
8 -131 48 -179 91 -68 61 -85 123 -109 385 -8 84 -8 82 -16 -91 -7 -169 -7
-179 14 -227 23 -54 111 -147 166 -175 49 -25 140 -45 284 -61 74 -9 141 -16
148 -16 22 0 0 -645 -22 -667 -2 -2 -59 -4 -127 -4 -183 0 -258 34 -306 138
-21 45 -26 77 -33 201 l-8 147 2 -155 c3 -210 -11 -136 -21 105 -6 159 -8 181
-16 135 -4 -30 -7 -131 -5 -225 3 -192 15 -235 86 -308 70 -73 97 -81 272 -85
85 -2 159 -7 164 -12 10 -10 -135 -23 -279 -24 -101 -1 -115 1 -167 27 -70 34
-128 99 -154 169 -17 49 -19 94 -22 613 -2 308 1 723 8 923 l12 363 -24 47
c-38 77 -107 110 -167 79 -44 -22 -37 -37 18 -37 44 0 56 -5 89 -34 l37 -34 3
-110 4 -110 -64 -6 c-118 -12 -136 -17 -159 -42 l-24 -26 -3 -476 c-4 -516 7
-1062 19 -977 4 28 8 355 8 727 1 404 5 687 11 702 10 28 46 41 144 52 48 6
58 5 54 -7 -3 -9 -26 -16 -66 -20 -33 -3 -72 -13 -86 -23 -25 -16 -26 -19 -26
-131 0 -148 7 -165 72 -165 l48 0 1 -372 c1 -205 4 -425 8 -488 l6 -115 7 160
c5 88 8 303 8 478 0 204 4 317 10 317 10 0 17 -591 11 -995 -2 -181 0 -220 16
-282 l19 -73 -20 0 c-51 1 -158 29 -178 46 -13 10 -10 4 7 -14 29 -32 78 -52
169 -68 25 -4 52 -20 76 -43 l38 -37 -90 8 c-50 5 -109 16 -132 27 -99 43
-159 133 -176 263 -12 91 -12 1496 -1 1633 10 117 37 195 86 252 58 68 79 74
250 69 83 -2 162 -6 177 -8z m1125 -50 c83 -8 113 -15 118 -26 5 -13 -20 -14
-212 -9 -120 4 -273 7 -340 7 l-123 0 0 27 0 26 223 -7 c122 -3 272 -11 334
-18z m278 16 c8 -4 22 -19 31 -35 14 -28 14 -29 -8 -29 -13 0 -27 4 -33 8 -10
7 -35 48 -35 57 0 7 25 6 45 -1z m-925 -19 c0 -8 -9 -15 -20 -15 -13 0 -18 5
-14 15 4 8 12 15 20 15 8 0 14 -7 14 -15z m60 -15 c0 -5 -7 -10 -15 -10 -8 0
-15 5 -15 10 0 6 7 10 15 10 8 0 15 -4 15 -10z m800 -20 c0 -13 -20 -13 -40 0
-12 8 -9 10 13 10 15 0 27 -4 27 -10z m570 -10 c0 -6 -39 -10 -96 -10 -61 0
-93 4 -89 10 3 6 46 10 96 10 53 0 89 -4 89 -10z m-1532 -35 c22 -21 34 -705
12 -705 -23 0 -50 -65 -50 -122 0 -32 -3 -58 -6 -58 -15 0 -209 108 -271 150
-90 61 -100 84 -111 250 l-9 135 -2 -111 c-2 -185 17 -220 183 -338 43 -31 72
-56 64 -56 -20 0 -176 95 -211 128 -61 57 -62 62 -65 365 -3 199 0 287 8 307
13 32 43 55 81 63 24 6 371 -2 377 -8z m966 -5 c231 -6 424 -14 429 -19 19
-19 26 -102 33 -362 7 -263 7 -266 -14 -280 -12 -9 -26 -28 -32 -43 -14 -39
-12 -132 5 -196 8 -30 15 -72 15 -92 0 -33 -4 -40 -37 -57 -106 -53 -271 -95
-418 -106 -184 -14 -479 37 -647 112 l-58 26 0 48 c0 56 -17 73 -86 83 -47 7
-60 -3 -66 -48 l-3 -30 -28 25 c-25 21 -29 33 -34 99 -7 98 -1 104 105 98 42
-3 85 -9 96 -13 16 -7 17 -6 7 14 -7 12 -25 24 -42 28 l-29 6 0 317 c0 240 -3
328 -14 363 l-14 45 207 -4 c113 -3 395 -9 625 -14z m-855 -27 c16 -58 15
-676 -1 -671 -10 4 -14 64 -18 241 -3 129 -8 239 -12 243 -5 4 -8 -101 -8
-234 0 -155 -4 -242 -10 -242 -6 0 -10 106 -10 298 0 163 -3 321 -6 350 l-7
52 31 0 c27 0 32 -4 41 -37z m1713 3 c231 -8 229 -6 238 -320 4 -128 4 -255 0
-283 -11 -86 -30 -102 -251 -213 -206 -102 -249 -116 -249 -80 0 21 24 28 35
10 13 -22 25 -8 25 30 0 41 -7 49 -27 29 -7 -7 -22 -7 -52 2 -36 11 -43 10
-61 -6 -12 -11 -20 -31 -20 -52 0 -18 -4 -33 -9 -33 -17 0 -25 42 -24 128 0
108 7 115 106 116 71 0 73 1 69 23 -2 13 -8 23 -12 23 -4 0 -10 129 -13 288
-3 158 -9 301 -15 319 l-10 32 66 -4 c37 -3 129 -7 204 -9z m-290 -51 c3 -27
7 -168 7 -312 l1 -263 -30 0 -30 0 -1 208 c-1 114 -4 245 -8 292 -4 47 -5 -39
-3 -191 4 -193 2 -281 -6 -295 -9 -14 -12 40 -12 226 -1 135 -5 278 -9 318
l-7 73 46 -3 45 -3 7 -50z m602 -3 c16 -15 38 -47 50 -72 21 -45 21 -54 24
-853 3 -716 1 -814 -13 -863 -23 -81 -102 -160 -175 -177 -23 -6 -20 -1 22 43
35 36 53 66 69 117 21 64 23 82 20 313 -1 135 -5 295 -9 355 -8 109 -8 108
-16 -115 -17 -486 -26 -552 -91 -627 -53 -62 -111 -82 -257 -88 -68 -3 -142
-8 -165 -10 -31 -3 -43 -1 -43 9 0 10 36 15 153 20 83 4 169 11 190 17 47 13
112 70 139 123 26 51 37 192 36 451 l-1 180 -8 -225 c-10 -270 -20 -339 -59
-400 -56 -87 -109 -105 -315 -111 -103 -3 -119 -2 -117 11 2 8 6 148 9 310 3
162 10 303 15 313 6 11 18 17 31 15 20 -3 23 -12 35 -128 21 -199 32 -209 28
-24 l-4 162 94 22 c164 38 265 105 319 213 25 50 25 53 24 301 0 138 -4 343
-8 456 -9 218 -19 266 -64 303 -21 17 -21 17 18 2 22 -9 53 -28 69 -43z
m-2744 -320 l0 -69 -28 5 c-18 2 -33 -2 -41 -12 -8 -9 -29 -16 -47 -16 l-34 0
0 74 c0 84 -3 82 98 85 l52 1 0 -68z m-10 -152 c0 -33 -4 -60 -10 -60 -6 0
-10 27 -10 60 0 33 4 60 10 60 6 0 10 -27 10 -60z m-50 -6 c0 -22 -4 -24 -45
-24 -42 0 -45 2 -45 28 0 26 2 27 45 24 40 -4 45 -7 45 -28z m2747 -362 c-5
-96 -10 -122 -32 -168 -42 -86 -138 -139 -332 -184 -118 -28 -119 -28 -121 19
-1 22 3 43 8 46 6 3 10 29 10 57 0 39 -3 48 -12 41 -18 -15 -82 -23 -123 -16
-34 5 -35 7 -35 49 0 23 4 45 9 48 5 4 7 -12 4 -35 -5 -33 -3 -41 8 -37 8 3
17 24 20 48 3 23 13 48 22 55 22 16 22 55 1 55 -22 0 -15 54 9 58 15 3 17 -7
17 -103 0 -81 3 -106 13 -103 7 3 13 26 15 56 3 48 5 52 28 52 20 0 24 -5 24
-32 l0 -33 13 25 c9 18 62 50 204 120 106 52 203 105 215 118 l23 22 8 -22 c5
-13 7 -74 4 -136z m-2101 -39 c8 -3 13 -45 16 -115 3 -106 4 -111 31 -130 22
-16 27 -27 27 -64 0 -51 6 -50 -135 -32 l-94 11 -3 202 -3 202 75 -34 c41 -19
80 -37 86 -40z m210 27 c9 0 14 -11 14 -30 0 -20 -5 -30 -15 -30 -8 0 -15 -9
-15 -20 0 -11 5 -20 10 -20 6 0 10 -9 10 -20 0 -29 -29 -25 -40 6 -6 14 -10
48 -10 76 0 42 3 49 16 44 9 -3 22 -6 30 -6z m-70 -110 c16 -33 31 -49 60 -62
22 -9 40 -13 42 -7 2 5 14 9 26 9 19 0 21 -4 18 -33 l-4 -33 -91 4 c-99 4
-127 19 -127 66 0 18 3 16 19 -11 19 -30 56 -51 69 -39 3 3 -2 12 -10 19 -9 6
-21 30 -28 52 -7 22 -19 50 -27 63 -14 22 -13 23 9 20 16 -2 29 -17 44 -48z
m159 -30 c4 -6 -2 -7 -16 -1 -13 4 -25 14 -27 20 -3 10 0 10 16 2 12 -6 24
-16 27 -21z m1125 -157 c0 -28 -3 -54 -7 -56 -10 -6 -508 -24 -860 -32 l-263
-6 0 39 c0 23 6 45 15 52 9 8 15 30 15 56 0 24 2 44 4 44 3 0 50 -11 106 -24
195 -48 299 -59 495 -53 194 5 268 19 402 74 l68 29 12 -36 c7 -19 13 -58 13
-87z m125 72 c45 0 65 -4 65 -12 0 -19 -100 -17 -128 3 -12 8 -22 21 -22 27 0
7 4 6 10 -3 7 -11 27 -15 75 -15z m-1275 -45 c12 -8 10 -10 -10 -9 -14 1 -36
5 -50 9 -23 7 -22 8 10 9 19 0 42 -4 50 -9z m1294 -28 c0 -12 -1 -71 -2 -132
l-2 -110 -35 0 -35 0 0 129 c0 126 1 130 23 134 39 8 52 3 51 -21z m-1325 1
c3 -2 7 -69 9 -149 l5 -145 -25 6 c-13 3 -36 1 -51 -4 l-27 -11 0 160 0 160
43 -6 c23 -4 44 -9 46 -11z m1169 -140 c-3 -35 -5 -37 -53 -50 -27 -7 -106
-22 -175 -35 -116 -21 -127 -25 -155 -55 -16 -18 -44 -36 -61 -39 -28 -5 -31
-3 -40 28 -10 33 -10 33 -79 36 -88 4 -125 -10 -125 -49 0 -26 -1 -27 -32 -18
-58 16 -80 48 -86 127 l-5 69 359 10 c198 5 381 10 407 11 l48 2 -3 -37z
m-865 -45 c2 -29 4 -54 3 -54 -2 -3 -210 17 -233 22 -19 3 -23 11 -23 39 0 33
2 34 43 38 23 2 79 4 123 5 l81 2 6 -52z m877 -36 c0 -4 -5 -13 -11 -19 -18
-18 -24 -140 -9 -168 10 -19 12 -64 7 -191 -3 -91 -7 -168 -9 -170 -3 -2 -181
-11 -397 -19 -281 -12 -397 -13 -404 -6 -8 8 -8 24 1 56 7 27 12 116 12 225 0
99 2 180 4 180 2 0 20 -7 40 -15 l36 -15 0 -133 c0 -120 2 -135 20 -155 42
-45 189 -21 210 33 6 15 10 77 10 139 l0 114 31 6 c17 3 44 19 60 35 26 26 45
33 142 50 62 12 141 29 177 40 79 23 80 23 80 13z m-1000 -52 c47 -6 98 -13
113 -16 l29 -6 -4 -191 c-4 -157 -8 -200 -23 -235 -17 -39 -17 -43 -1 -60 16
-18 13 -19 -90 -25 -59 -4 -124 -7 -146 -7 l-38 0 0 140 c0 122 3 144 20 172
16 27 20 51 20 136 0 117 -12 108 120 92z m460 -35 c0 -24 -3 -25 -60 -25 -52
0 -60 2 -60 19 0 24 12 29 73 30 44 1 47 -1 47 -24z m678 -42 c-3 -61 -5 -68
-25 -71 -41 -6 -69 70 -43 119 7 12 21 19 41 19 l30 0 -3 -67z m-1310 15 c15
-15 16 -122 2 -149 -15 -27 -64 -25 -84 3 -23 33 -21 113 4 138 22 22 60 26
78 8z m634 -40 c3 -7 3 -66 0 -131 -5 -132 -5 -132 -88 -125 l-39 3 -3 119
c-2 78 1 123 9 132 15 18 115 19 121 2z m669 -258 c-12 -170 -20 -200 -53
-200 -23 0 -23 1 -16 92 3 51 7 134 7 185 l1 92 33 3 c20 2 33 -2 35 -10 2 -8
-1 -80 -7 -162z m-84 -10 c-6 -145 -12 -190 -27 -190 -5 0 -4 15 1 33 6 17 13
102 16 187 4 85 9 146 11 135 3 -11 2 -85 -1 -165z m-1346 -139 c-6 -47 -15
-89 -21 -95 -6 -6 -6 2 0 25 6 19 14 102 18 184 6 136 7 142 10 60 2 -49 -2
-128 -7 -174z m97 95 c-6 -168 -14 -196 -59 -196 l-32 0 7 47 c3 25 9 103 12
173 l7 126 35 -4 34 -4 -4 -142z m1172 -135 c0 -12 -69 -19 -255 -26 -352 -12
-687 -25 -782 -30 -83 -4 -103 -2 -103 9 0 18 74 22 565 37 204 6 375 12 380
14 23 8 195 4 195 -4z"/>
<path d="M1106 3140 c-9 -22 -16 -48 -16 -58 1 -9 9 8 20 38 22 65 20 79 -4
20z"/>
<path d="M1081 3034 c0 -11 3 -14 6 -6 3 7 2 16 -1 19 -3 4 -6 -2 -5 -13z"/>
<path d="M1493 2037 c19 -25 107 -86 107 -75 0 2 -22 21 -50 42 -27 21 -50 42
-50 48 0 5 5 6 12 2 6 -4 8 -3 4 4 -3 6 -15 10 -26 9 -19 -1 -18 -2 3 -30z"/>
<path d="M1482 1775 c0 -16 2 -22 5 -12 2 9 2 23 0 30 -3 6 -5 -1 -5 -18z"/>
<path d="M1482 1715 c0 -16 2 -22 5 -12 2 9 2 23 0 30 -3 6 -5 -1 -5 -18z"/>
<path d="M1091 1344 c0 -11 3 -14 6 -6 3 7 2 16 -1 19 -3 4 -6 -2 -5 -13z"/>
<path d="M2030 2405 c0 -35 52 -61 63 -31 12 30 -4 56 -34 56 -24 0 -29 -4
-29 -25z"/>
<path d="M2388 2143 c7 -3 16 -2 19 1 4 3 -2 6 -13 5 -11 0 -14 -3 -6 -6z"/>
<path d="M2428 2133 c7 -3 16 -2 19 1 4 3 -2 6 -13 5 -11 0 -14 -3 -6 -6z"/>
<path d="M2483 2123 c9 -2 23 -2 30 0 6 3 -1 5 -18 5 -16 0 -22 -2 -12 -5z"/>
<path d="M3058 2123 c7 -3 16 -2 19 1 4 3 -2 6 -13 5 -11 0 -14 -3 -6 -6z"/>
<path d="M2565 2110 c65 -14 295 -22 360 -12 50 7 34 8 -90 8 -82 -1 -186 2
-230 6 -54 4 -67 4 -40 -2z"/>
<path d="M3003 2113 c9 -2 23 -2 30 0 6 3 -1 5 -18 5 -16 0 -22 -2 -12 -5z"/>
<path d="M1993 3115 c0 -27 2 -38 4 -22 2 15 2 37 0 50 -2 12 -4 0 -4 -28z"/>
<path d="M3930 2570 c0 -21 -51 -80 -95 -108 -11 -7 -6 -6 10 2 57 27 113 102
91 123 -3 4 -6 -4 -6 -17z"/>
<path d="M3404 2445 c-4 -8 -4 -22 0 -30 7 -19 56 -20 56 -1 0 8 3 21 6 30 5
13 -1 16 -25 16 -19 0 -34 -6 -37 -15z"/>
<path d="M3673 2385 c-62 -29 -113 -56 -113 -59 0 -6 211 93 225 105 15 15 5
11 -112 -46z"/>
<path d="M3588 1953 c7 -3 16 -2 19 1 4 3 -2 6 -13 5 -11 0 -14 -3 -6 -6z"/>
<path d="M3548 1943 c7 -3 16 -2 19 1 4 3 -2 6 -13 5 -11 0 -14 -3 -6 -6z"/>
<path d="M1778 1953 c7 -3 16 -2 19 1 4 3 -2 6 -13 5 -11 0 -14 -3 -6 -6z"/>
<path d="M1828 1943 c6 -2 18 -2 25 0 6 3 1 5 -13 5 -14 0 -19 -2 -12 -5z"/>
<path d="M2623 1833 c-34 -4 -59 -26 -48 -43 4 -6 50 -10 116 -10 92 0 111 3
116 16 14 38 -60 52 -184 37z"/>
</g>
</svg>